<svg width="61" height="65" viewBox="0 0 61 65" fill="none" xmlns="http://www.w3.org/2000/svg">
<path d="M48.6979 0.134666C48.8997 0.269333 49.0342 0.403999 49.1687 0.538666C55.424 9.42665 60.6704 19.392 60.6704 32.5893C60.6704 45.8539 55.2223 55.8192 49.1687 64.1686C48.9669 64.3706 48.8997 64.5726 48.6306 64.7746C48.3616 64.9766 47.8235 64.9092 47.8235 64.9092H41.9717C41.9717 64.9092 41.7699 64.9092 41.7027 64.8419C41.6354 64.7072 41.7027 64.6399 41.7699 64.5726C44.1241 59.8592 46.4782 55.0786 48.227 49.6919C49.9086 44.5746 51.5901 38.9859 51.7246 32.4546C51.9264 25.3173 50.9175 21.008 49.505 16.4293C47.3526 9.56132 44.3259 4.10733 41.9044 0.538666C41.7027 0.269333 41.7027 0.202 41.7699 0.0673332C41.9044 0 42.1062 0 42.1062 0H47.8907C47.8907 0 48.4961 0 48.6979 0.134666Z" fill="#FFEC40"/>
<path d="M43.9892 12.1204C43.5856 11.1104 39.1463 1.21239 39.0118 0.943053C38.9446 0.808387 38.8773 0.87572 38.81 0.87572C38.7428 0.943053 38.6755 1.01039 38.7428 1.27972C39.1463 4.91571 39.2809 10.235 38.1374 16.295C37.3975 20.2677 36.4559 23.9037 33.4291 29.2903C30.7386 34.1383 27.241 37.707 23.9452 40.939C20.5149 44.3056 16.8155 46.999 13.1834 49.625C13.1161 49.6923 13.0488 49.6923 13.0488 49.827C13.0488 49.8943 13.2506 50.029 13.2506 50.029L17.6899 52.3856C17.6899 52.3856 18.0934 52.5876 18.3625 52.5876C18.6315 52.5203 18.7661 52.453 18.9679 52.3856C26.9047 48.413 34.9089 43.0936 40.2225 33.061C43.3166 27.203 44.9981 21.4124 44.8636 15.8237C44.7291 14.2077 44.3255 12.9957 43.9892 12.1204Z" fill="#F9BC12"/>
<path d="M35.7159 11.3798C35.7832 10.5045 35.985 1.75117 35.985 1.54917C35.985 1.34717 35.9177 1.34717 35.8505 1.34717C35.7832 1.34717 35.7159 1.4145 35.6487 1.6165C34.707 4.37716 32.8909 8.28249 29.9987 12.3225C28.0481 14.9485 26.0975 17.3051 22.0618 20.1331C18.4297 22.6918 14.5958 24.1058 11.0982 25.2505C7.39878 26.4625 3.83391 27.2031 0.201785 27.8091C0.134523 27.8091 0.0672616 27.8091 0 27.8765C0 27.9438 0.0672612 28.0785 0.0672612 28.0785L2.48868 31.3105C2.48868 31.3105 2.69047 31.6471 2.89225 31.7145C3.09404 31.7818 3.22856 31.7818 3.43034 31.7818C10.5601 31.7145 18.2952 30.6371 25.6267 25.1831C29.9314 22.0185 33.16 18.3825 34.9761 14.2751C35.5141 13.1305 35.6487 12.1205 35.7159 11.3798Z" fill="#F9BC12"/>
</svg>
