<svg width="182" height="182" viewBox="0 0 182 182" fill="none" xmlns="http://www.w3.org/2000/svg">
<rect x="0" y="0" width="182" height="182" rx="14" fill="#FEFFED"/>
<path d="M79.3647 150.868H71.6787V138.268H76.5927C79.7007 138.268 82.0107 137.554 83.5227 136.126C85.1187 134.782 85.9167 132.598 85.9167 129.574C85.9167 127.222 85.7067 125.038 85.2867 123.022C84.9507 121.006 84.5727 118.906 84.1527 116.722C83.7327 114.454 83.5227 111.85 83.5227 108.91C83.5227 104.374 84.6147 100.552 86.7987 97.4443C89.0667 94.2523 92.5527 92.1523 97.2567 91.1443V90.7663C92.5527 89.7583 89.0667 87.7003 86.7987 84.5923C84.6147 81.4003 83.5227 77.6203 83.5227 73.2523C83.5227 70.5643 83.7327 68.1283 84.1527 65.9443C84.5727 63.6763 84.9507 61.4503 85.2867 59.2663C85.7067 56.9983 85.9167 54.7303 85.9167 52.4623C85.9167 49.3543 85.1187 47.1283 83.5227 45.7843C82.0107 44.4403 79.7007 43.7683 76.5927 43.7683H71.6787V31.1683H79.3647C85.7487 31.1683 90.8727 32.8483 94.7367 36.2083C98.6007 39.5683 100.533 44.5243 100.533 51.0763C100.533 53.9323 100.323 56.5363 99.9027 58.8883C99.4827 61.2403 99.0207 63.5083 98.5167 65.6923C98.0967 67.8763 97.8867 70.1863 97.8867 72.6223C97.8867 74.6383 98.2647 76.4863 99.0207 78.1663C99.7767 79.8463 101.079 81.2743 102.927 82.4503C104.775 83.6263 107.253 84.4663 110.361 84.9703V97.0663C107.253 97.4863 104.775 98.3263 102.927 99.5863C101.079 100.762 99.7767 102.19 99.0207 103.87C98.2647 105.55 97.8867 107.356 97.8867 109.288C97.8867 112.144 98.0967 114.664 98.5167 116.848C99.0207 118.948 99.4827 121.09 99.9027 123.274C100.323 125.458 100.533 128.02 100.533 130.96C100.533 137.512 98.6007 142.468 94.7367 145.828C90.8727 149.188 85.7487 150.868 79.3647 150.868Z" fill="#FEAC04"/>
</svg>
