<svg width="182" height="182" viewBox="0 0 182 182" fill="none" xmlns="http://www.w3.org/2000/svg">
<rect width="182" height="182" rx="14" fill="white"/>
<path d="M123.11 26.5412C123.509 26.807 123.774 27.0727 124.04 27.3385C136.385 44.8801 146.74 64.548 146.74 90.5946C146.74 116.774 135.987 136.442 124.04 152.92C123.641 153.319 123.509 153.718 122.978 154.116C122.447 154.515 121.385 154.382 121.385 154.382H109.836C109.836 154.382 109.437 154.382 109.304 154.249C109.172 153.983 109.304 153.851 109.437 153.718C114.084 144.415 118.73 134.98 122.181 124.349C125.5 114.249 128.819 103.219 129.084 90.3287C129.482 76.2424 127.491 67.7374 124.703 58.7007C120.455 45.1459 114.482 34.3817 109.703 27.3385C109.304 26.807 109.304 26.6741 109.437 26.4083C109.703 26.2754 110.101 26.2754 110.101 26.2754H121.517C121.517 26.2754 122.712 26.2754 123.11 26.5412Z" fill="#FBEA4E"/>
<path d="M113.818 50.1962C113.022 48.2028 104.26 28.6679 103.995 28.1364C103.862 27.8706 103.729 28.0035 103.596 28.0035C103.464 28.1364 103.331 28.2693 103.464 28.8008C104.26 35.9769 104.526 46.4753 102.269 58.4355C100.809 66.2761 98.9504 73.4522 92.9766 84.0834C87.6665 93.6515 80.7636 100.695 74.2589 107.074C67.4885 113.718 60.1875 119.034 53.0189 124.216C52.8862 124.349 52.7534 124.349 52.7534 124.615C52.7534 124.748 53.1517 125.014 53.1517 125.014L61.9132 129.665C61.9132 129.665 62.7096 130.064 63.2407 130.064C63.7716 129.931 64.037 129.798 64.4353 129.665C80.0998 121.825 95.8969 111.326 106.384 91.5253C112.491 79.9638 115.809 68.5351 115.544 57.5053C115.278 54.3159 114.482 51.9239 113.818 50.1962Z" fill="#F4B840"/>
<path d="M97.4899 48.7349C97.6228 47.0072 98.021 29.7314 98.021 29.3328C98.021 28.9341 97.8882 28.9341 97.7556 28.9341C97.6227 28.9341 97.4899 29.067 97.3573 29.4656C95.4987 34.9142 91.9144 42.6218 86.2063 50.5952C82.3565 55.778 78.5068 60.4292 70.5418 66.0107C63.3734 71.0604 55.8067 73.8511 48.9037 76.1103C41.6024 78.5023 34.5667 79.9642 27.3982 81.1602C27.2655 81.1602 27.1327 81.1602 27 81.2931C27 81.4259 27.1327 81.6917 27.1327 81.6917L31.9117 88.0705C31.9117 88.0705 32.31 88.735 32.7082 88.8678C33.1065 89.0007 33.372 89.0007 33.7702 89.0007C47.8417 88.8678 63.1079 86.7417 77.5776 75.9775C86.0735 69.7315 92.4455 62.5554 96.0298 54.4491C97.0917 52.1899 97.3573 50.1966 97.4899 48.7349Z" fill="#F4B840"/>
</svg>
