<svg width="182" height="181" viewBox="0 0 182 181" fill="none" xmlns="http://www.w3.org/2000/svg">
<rect x="0.678711" width="180.679" height="180.679" rx="14" fill="#FFEC40"/>
<path d="M63.2487 148.677C58.6287 144.141 54.4287 138.849 50.6487 132.801C46.9527 126.753 44.0127 120.159 41.8287 113.019C39.7287 105.879 38.6787 98.3194 38.6787 90.3394C38.6787 82.3594 39.7287 74.7994 41.8287 67.6594C44.0127 60.5194 46.9527 53.9254 50.6487 47.8774C54.4287 41.8294 58.6287 36.5374 63.2487 32.0014H78.3687V33.3874C73.3287 38.5954 68.9187 44.2654 65.1387 50.3974C61.4427 56.5294 58.5867 62.9554 56.5707 69.6754C54.5547 76.3954 53.5467 83.2834 53.5467 90.3394C53.5467 97.3954 54.5547 104.283 56.5707 111.003C58.5867 117.723 61.4847 124.149 65.2647 130.281C69.0447 136.413 73.4127 142.083 78.3687 147.291V148.677H63.2487Z" fill="#FEAC04"/>
<path d="M117.962 148.677H102.842V147.291C107.882 142.083 112.25 136.413 115.946 130.281C119.726 124.149 122.624 117.723 124.64 111.003C126.656 104.283 127.664 97.3954 127.664 90.3394C127.664 83.2834 126.656 76.3954 124.64 69.6754C122.624 62.9554 119.726 56.5294 115.946 50.3974C112.25 44.1814 107.882 38.5114 102.842 33.3874V32.0014H117.962C122.666 36.4534 126.866 41.7454 130.562 47.8774C134.258 53.9254 137.198 60.5194 139.382 67.6594C141.566 74.7994 142.658 82.3594 142.658 90.3394C142.658 98.3194 141.566 105.879 139.382 113.019C137.198 120.159 134.258 126.711 130.562 132.675C126.866 138.723 122.666 144.057 117.962 148.677Z" fill="#FEAC04"/>
</svg>
