<svg width="851" height="304" viewBox="0 0 851 304" fill="none" xmlns="http://www.w3.org/2000/svg">
<rect x="18" y="90" width="192" height="35" rx="17.5" fill="white"/>
<rect x="66" y="147" width="144" height="35" rx="17.5" fill="white"/>
<rect x="98" y="204" width="112" height="35" rx="17.5" fill="white"/>
<path d="M730.583 239C718.815 239 708.117 236.259 698.489 230.776C689.014 225.293 681.525 217.538 676.023 207.512C670.674 197.33 668 185.581 668 172.265C668 159.106 670.751 147.514 676.253 137.488C681.907 127.305 689.549 119.551 699.177 114.224C708.805 108.741 719.579 106 731.5 106C743.421 106 754.195 108.741 763.823 114.224C773.451 119.551 781.016 127.227 786.518 137.253C792.173 147.279 795 158.949 795 172.265C795 185.581 792.096 197.33 786.289 207.512C780.634 217.538 772.916 225.293 763.135 230.776C753.354 236.259 742.504 239 730.583 239ZM730.583 220.201C738.072 220.201 742.881 218.165 749.453 214.562C756.025 210.959 761.297 205.554 765.271 198.348C769.397 191.142 771.46 182.369 771.46 172.03C771.46 161.691 769.474 152.918 765.5 145.712C761.526 138.506 756.33 133.18 749.912 129.733C743.493 126.13 738.759 124.564 731.271 124.564C723.629 124.564 718.148 126.13 711.729 129.733C705.463 133.18 700.42 138.506 696.599 145.712C692.779 152.918 690.868 161.691 690.868 172.03C690.868 182.526 692.702 191.377 696.37 198.583C700.191 205.789 705.234 211.194 711.5 214.797C717.766 218.243 723.094 220.201 730.583 220.201Z" fill="white"/>
<path d="M550.236 184.353C550.618 185.77 551.048 187.141 551.529 188.467C552.999 191.159 554.666 193.61 556.528 195.819C553.956 192.393 551.825 188.534 550.236 184.353Z" fill="white"/>
<path d="M617.162 197.48C619.669 194.857 621.847 191.853 623.696 188.467C625.398 185.284 626.235 181.87 626.642 178.225C624.914 185.528 621.609 192.109 617.162 197.48Z" fill="white"/>
<path d="M610.691 129.194C609.906 128.468 609.141 127.81 608.408 127.224C606.846 126.239 605.182 125.384 603.439 124.659C606.004 125.894 608.432 127.417 610.691 129.194Z" fill="white"/>
<path fill-rule="evenodd" clip-rule="evenodd" d="M611.331 107.935C603.387 103.312 594.095 101 583.453 101C572.512 101 562.545 103.61 553.552 108.83C544.709 114.049 537.74 121.431 532.644 130.976C527.548 140.371 525 151.333 525 163.86C525 176.238 528.366 192.5 531.52 198.5C536.616 208.194 543.533 219.131 552.376 224.5C561.369 229.869 572.46 232.553 583.401 232.553C594.043 232.553 603.335 230.167 611.279 225.395C619.222 220.623 623.453 216.877 627.5 209.718V228.285C627.5 240.962 623.694 249.491 616.5 256.5C609.456 263.509 600.313 265.621 589.072 265.621C579.18 265.621 572.737 264.623 565.692 260C558.648 255.526 553.777 247.957 551.529 240.5C542.299 233.263 534.5 238 531.52 243.497C533.468 256.621 539.838 266.986 550.629 274.591C561.421 282.197 574.91 286 591.097 286C602.938 286 613.279 283.539 622.122 278.618C631.115 273.697 638.01 266.836 642.806 258.038C647.602 249.388 650 239.47 650 228.285V103.013C641.709 98.603 635.431 100.029 627.5 103.013V125.383C623.603 118.374 619.424 112.558 611.331 107.935ZM547 166.5C547 141.371 565.132 121 587.5 121C593.159 121 598.547 122.304 603.439 124.659C606.004 125.894 608.432 127.417 610.691 129.194C621.156 137.42 628 151.062 628 166.5C628 170.554 627.528 174.484 626.642 178.225C624.914 185.528 621.609 192.109 617.162 197.48C609.767 206.412 599.214 212 587.5 212C575.075 212 563.957 205.714 556.528 195.819C553.956 192.393 551.825 188.534 550.236 184.353C548.153 178.871 547 172.837 547 166.5Z" fill="white"/>
<path d="M491.11 117.502C481.85 107.642 471.752 102.712 456.817 102.712C448.453 102.712 440.761 104.571 433.741 108.288C426.871 112.006 421.42 117.259 417.387 124.048V105.137C407.716 99.6858 404.117 102.445 397 105.137V238C404.965 241.583 409.421 241.047 417.387 238V164.537C417.387 150.637 420.963 142.232 427.236 134.958C433.659 127.685 442.246 124.048 453 124.048C463.604 124.048 469.968 127.604 476.092 134.716C482.215 141.666 484.837 149.586 484.837 162.84V238C492.247 241.78 496.766 240.958 505 238V159.688C505 141.262 500.37 127.2 491.11 117.502Z" fill="white"/>
<path d="M356.213 86C352.519 86 349.393 84.7903 346.836 82.371C344.279 79.9516 343 76.9946 343 73.5C343 70.0054 344.279 67.0484 346.836 64.629C349.393 62.2097 352.519 61 356.213 61C359.765 61 362.749 62.2097 365.164 64.629C367.721 67.0484 369 70.0054 369 73.5C369 76.9946 367.721 79.9516 365.164 82.371C362.749 84.7903 359.765 86 356.213 86Z" fill="white"/>
<path d="M364.21 113L364.197 238C355.749 240.197 351.013 240.996 342.566 238V128.269C316.399 133.209 303.616 135.249 280.5 130.5L282.354 238C273.323 239.861 268.337 240.13 259.686 238L258.5 125.5L243.5 121.5C241.216 113.884 241.831 109.615 249 102L258.5 104L259.606 97.3218C259.606 82.6566 264.695 71.9765 272.5 65.2816C280.471 58.4272 296 50.5 316 55.5C317.984 63.8525 318.348 68.4218 312 75.5C302.036 75.5 293.484 77.0849 289.332 80.9106C285.347 84.5769 281.5 88.7139 281.5 97.3218V108C304.874 111.769 318.732 110.265 344 105C359.54 102.135 363.645 104.778 364.171 112.273L364.21 113Z" fill="white"/>
</svg>
