<svg width="551" height="151" viewBox="0 0 551 151" fill="none" xmlns="http://www.w3.org/2000/svg">
<g clip-path="url(#clip0_391_13823)">
<path d="M75.19 0C33.66 0 0 33.64 0 75.14C0 116.64 33.66 150.28 75.19 150.28C116.72 150.28 150.38 116.64 150.38 75.14C150.38 33.64 116.71 0 75.19 0ZM113.39 91.38C113.39 106.41 101.18 118.5 85.99 118.5C70.8 118.5 58.59 106.42 58.59 91.38V69.63C58.59 60.77 65.92 53.52 74.87 53.52C83.82 53.52 91.15 60.77 91.15 69.63V91.38C91.15 94.33 88.71 96.75 85.72 96.75C82.73 96.75 80.56 94.33 80.56 91.38V69.63C80.56 66.68 78.12 64.26 75.13 64.26C72.14 64.26 69.7 66.68 69.7 69.63V91.38C69.7 100.24 77.03 107.49 85.98 107.49C94.93 107.49 102.26 100.24 102.26 91.38V69.63C102.26 54.6 90.05 42.52 74.86 42.52C59.67 42.52 47.73 54.6 47.73 69.63V91.38C47.73 94.33 45.29 96.75 42.3 96.75C39.31 96.75 36.87 94.33 36.87 91.38V69.63C36.87 48.69 53.96 31.78 75.13 31.78C96.3 31.78 113.39 48.69 113.39 69.63V91.38Z" fill="white"/>
<path d="M249.101 78.1889C249.101 85.8889 247.651 92.4989 244.751 98.2689C241.851 104.049 237.491 108.719 231.981 111.749C226.471 114.779 220.371 116.429 213.121 116.429C205.871 116.429 199.771 114.779 194.551 111.749C189.041 108.719 184.971 104.319 181.781 98.5489C178.591 92.7689 177.141 86.4489 177.141 79.0189V74.6189C177.141 66.9189 178.591 60.3089 181.491 54.5389C184.391 48.7589 188.741 44.0889 194.261 41.0589C199.771 37.7589 206.161 36.3789 213.121 36.3789C220.081 36.3789 226.181 38.0289 231.691 41.0589C237.201 44.0889 241.261 48.7589 244.461 54.5389C247.361 60.3189 249.101 66.9189 249.101 74.6189V78.1989V78.1889ZM229.081 74.8889C229.081 67.1889 227.631 61.1289 225.021 57.2789C222.411 53.4289 218.351 51.2289 213.411 51.2289C203.541 51.2289 198.321 58.3789 197.741 72.4089V78.1889C197.741 85.8889 199.191 91.6689 201.801 95.7989C204.411 99.9289 208.481 101.849 213.701 101.849C218.631 101.849 222.701 99.9189 225.311 95.7989C227.921 91.6689 229.371 85.8989 229.371 78.4689V74.8889H229.081Z" fill="white"/>
<path d="M296.821 74.4781L290.291 73.9181C284.061 73.9181 280.191 75.5981 278.411 79.2281V116.418H258.811V57.6981H277.221L277.811 65.2481C281.081 59.3781 285.531 56.5781 291.471 56.5781C293.551 56.5781 295.331 56.8581 296.811 57.1381V74.4781H296.821Z" fill="white"/>
<path d="M340.111 116.92C339.531 115.8 338.941 113.83 338.361 111.59C334.861 115.8 329.901 118.05 323.481 118.05C317.651 118.05 312.691 116.37 308.601 113C304.521 109.63 302.471 105.42 302.471 100.37C302.471 93.9198 304.801 89.1498 309.761 85.7798C314.721 82.4098 321.721 80.7298 331.351 80.7298H337.181V77.6398C337.181 72.3098 334.851 69.4998 329.891 69.4998C325.221 69.4998 323.181 71.7398 323.181 75.9498H303.921C303.921 70.3398 306.551 65.5698 311.511 61.9198C316.471 58.2698 322.891 56.5898 330.771 56.5898C338.651 56.5898 344.781 58.5498 349.441 62.1998C354.111 65.8498 356.441 70.8998 356.441 77.3498V103.45C356.441 108.78 357.321 112.99 359.071 115.8V116.64H340.101V116.92H340.111ZM328.151 104.85C330.481 104.85 332.531 104.29 333.981 103.45C335.441 102.33 336.611 101.49 337.481 100.08V90.5398H331.941C325.231 90.5398 322.021 93.3498 322.021 99.2398C322.021 100.92 322.601 102.33 323.771 103.45C324.941 104.57 326.401 104.85 328.151 104.85Z" fill="white"/>
<path d="M364.74 86.7798C364.74 80.8498 365.91 75.4898 367.94 70.9798C369.98 66.4598 372.89 62.7998 376.67 60.2598C380.45 57.7198 384.82 56.5898 390.06 56.5898C396.46 56.5898 401.41 58.5698 404.91 62.7998L405.49 57.7198H422.96V115.01C422.96 120.37 421.8 124.89 419.17 128.55C416.55 132.5 413.06 135.32 408.4 137.58C403.74 139.56 398.21 140.68 391.81 140.68C387.44 140.68 383.08 139.83 378.71 138.14C374.63 136.45 371.14 134.47 369.1 131.65L376.96 120.64C380.45 124.59 385.11 126.85 390.93 126.85C399.37 126.85 403.74 122.62 403.74 114.15V112.18C399.95 116.13 395.59 118.11 389.77 118.11C382.2 118.11 376.38 115.29 371.72 109.93C367.06 104.57 364.73 96.9498 364.73 87.6398V86.7898L364.74 86.7798ZM383.66 87.9098C383.66 92.7098 384.53 96.6598 386.57 99.4798C388.32 102.3 391.23 103.71 394.43 103.71C398.51 103.71 401.42 102.3 403.45 99.7598V74.6398C401.7 71.8198 398.5 70.6898 394.43 70.6898C390.94 70.6898 388.32 72.0998 386.57 75.2098C384.82 78.0298 383.66 82.2598 383.66 87.9098Z" fill="white"/>
<path d="M470.471 110.44C466.361 115.52 460.781 118.06 454.021 118.06C447.261 118.06 441.981 116.09 438.751 112.42C435.231 108.75 433.461 103.11 433.461 96.0602V57.4102H452.841V96.0602C452.841 101.14 455.481 103.68 460.481 103.68C464.881 103.68 468.121 102.27 469.881 99.1702V57.4202H489.261V116.94H471.051L470.461 110.45L470.471 110.44Z" fill="white"/>
<path d="M531.691 100.358C531.691 98.6781 530.811 97.5481 529.051 96.7081C527.291 95.8681 524.071 94.7381 519.391 93.6181C514.701 92.4981 510.601 91.3781 507.681 89.6881C504.461 88.0081 502.121 86.0381 500.651 83.5181C498.891 81.2781 498.311 78.4681 498.311 75.3781C498.311 70.0481 500.651 65.5581 505.341 61.9081C510.021 58.2581 516.171 56.5781 523.791 56.5781C531.991 56.5781 538.431 58.2581 543.411 61.9081C548.391 65.5581 550.731 70.0481 550.731 75.9381H531.401C531.401 71.1681 528.761 68.9181 523.491 68.9181C521.441 68.9181 519.681 69.4781 518.511 70.5981C517.341 71.7181 516.461 73.1281 516.461 74.5281C516.461 76.2081 517.341 77.6181 519.091 78.4581C520.851 79.5781 523.481 80.4181 527.001 80.9881C530.811 81.5481 534.031 82.3881 536.661 83.2281C546.031 86.3181 550.721 91.6481 550.721 99.7881C550.721 105.118 548.081 109.608 543.111 112.978C538.131 116.348 531.691 118.028 523.781 118.028C518.511 118.028 513.821 117.188 509.721 115.218C505.621 113.538 502.401 111.008 500.061 107.918C497.721 104.828 496.551 101.458 496.551 98.0981H514.411C514.411 100.908 515.581 102.868 517.341 103.988C519.101 105.108 521.441 105.958 524.371 105.958C527.011 105.958 529.061 105.398 530.231 104.558C530.821 103.158 531.691 102.028 531.691 100.348V100.358Z" fill="white"/>
</g>
<defs>
<clipPath id="clip0_391_13823">
<rect width="550.73" height="150.29" fill="white"/>
</clipPath>
</defs>
</svg>
