<svg width="771" height="225" viewBox="0 0 771 225" fill="none" xmlns="http://www.w3.org/2000/svg">
<path d="M267.75 156V62.9091H307.932C314.841 62.9091 320.886 64.2727 326.068 67C331.25 69.7273 335.28 73.5606 338.159 78.5C341.038 83.4394 342.477 89.2121 342.477 95.8182C342.477 102.485 340.992 108.258 338.023 113.136C335.083 118.015 330.947 121.773 325.614 124.409C320.311 127.045 314.114 128.364 307.023 128.364H283.023V108.727H301.932C304.902 108.727 307.432 108.212 309.523 107.182C311.644 106.121 313.265 104.621 314.386 102.682C315.538 100.742 316.114 98.4545 316.114 95.8182C316.114 93.1515 315.538 90.8788 314.386 89C313.265 87.0909 311.644 85.6364 309.523 84.6364C307.432 83.6061 304.902 83.0909 301.932 83.0909H293.023V156H267.75ZM406.841 62.9091H432.114V122.545C432.114 129.636 430.417 135.773 427.023 140.955C423.659 146.106 418.962 150.091 412.932 152.909C406.902 155.697 399.902 157.091 391.932 157.091C383.902 157.091 376.871 155.697 370.841 152.909C364.811 150.091 360.114 146.106 356.75 140.955C353.417 135.773 351.75 129.636 351.75 122.545V62.9091H377.023V120.364C377.023 123.242 377.659 125.818 378.932 128.091C380.205 130.333 381.962 132.091 384.205 133.364C386.477 134.636 389.053 135.273 391.932 135.273C394.841 135.273 397.417 134.636 399.659 133.364C401.902 132.091 403.659 130.333 404.932 128.091C406.205 125.818 406.841 123.242 406.841 120.364V62.9091ZM444.125 156V62.9091H469.398V135.636H507.034V156H444.125ZM517.25 156V62.9091H542.523V135.636H580.159V156H517.25ZM590.375 156V62.9091H630.557C637.466 62.9091 643.511 64.2727 648.693 67C653.875 69.7273 657.905 73.5606 660.784 78.5C663.663 83.4394 665.102 89.2121 665.102 95.8182C665.102 102.485 663.617 108.258 660.648 113.136C657.708 118.015 653.572 121.773 648.239 124.409C642.936 127.045 636.739 128.364 629.648 128.364H605.648V108.727H624.557C627.527 108.727 630.057 108.212 632.148 107.182C634.269 106.121 635.89 104.621 637.011 102.682C638.163 100.742 638.739 98.4545 638.739 95.8182C638.739 93.1515 638.163 90.8788 637.011 89C635.89 87.0909 634.269 85.6364 632.148 84.6364C630.057 83.6061 627.527 83.0909 624.557 83.0909H615.648V156H590.375ZM764.557 109.455C764.557 119.818 762.542 128.561 758.511 135.682C754.481 142.773 749.042 148.152 742.193 151.818C735.345 155.455 727.708 157.273 719.284 157.273C710.799 157.273 703.133 155.439 696.284 151.773C689.466 148.076 684.042 142.682 680.011 135.591C676.011 128.47 674.011 119.758 674.011 109.455C674.011 99.0909 676.011 90.3636 680.011 83.2727C684.042 76.1515 689.466 70.7727 696.284 67.1364C703.133 63.4697 710.799 61.6364 719.284 61.6364C727.708 61.6364 735.345 63.4697 742.193 67.1364C749.042 70.7727 754.481 76.1515 758.511 83.2727C762.542 90.3636 764.557 99.0909 764.557 109.455ZM738.557 109.455C738.557 103.879 737.814 99.1818 736.33 95.3636C734.875 91.5151 732.708 88.6061 729.83 86.6364C726.981 84.6364 723.466 83.6364 719.284 83.6364C715.102 83.6364 711.572 84.6364 708.693 86.6364C705.845 88.6061 703.678 91.5151 702.193 95.3636C700.739 99.1818 700.011 103.879 700.011 109.455C700.011 115.03 700.739 119.742 702.193 123.591C703.678 127.409 705.845 130.318 708.693 132.318C711.572 134.288 715.102 135.273 719.284 135.273C723.466 135.273 726.981 134.288 729.83 132.318C732.708 130.318 734.875 127.409 736.33 123.591C737.814 119.742 738.557 115.03 738.557 109.455Z" fill="white"/>
<path d="M126.775 83.2688C124.6 82.7625 122.331 82.5 120 82.5C103.431 82.5 90 95.9313 90 112.5C90 113 90.0125 113.5 90.0375 113.994H90.0188C90.0063 114.538 90 115.081 90 115.625C90 156.012 122.737 188.75 163.125 188.75C171.081 188.75 178.744 187.481 185.919 185.125C183.894 187.519 181.769 189.831 179.55 192.05C169.369 202.231 157.25 210.469 143.788 216.156C130.331 221.85 115.531 225 100 225C98.1125 225 96.2375 224.956 94.375 224.863C81.6875 223.306 69.175 217.894 58.125 205C43.125 187.5 35.625 165.625 33.4063 162.044C31.1938 158.462 29.375 156.25 25.625 156.25C20.5875 156.25 13.75 158.75 14.375 167.5C14.8375 174.006 14.55 184.125 21.875 192.5C33.4625 205.744 53.5813 215.056 60.5563 217.881C59.0938 217.337 57.6438 216.762 56.2125 216.156C43.7313 210.881 32.4063 203.419 22.7063 194.244C15.575 184.719 9.89999 174.05 6.00624 162.556C2.11249 151.062 0 138.744 0 125.938C0 110.188 3.19377 95.1875 8.96252 81.5375C13.2625 71.375 18.9938 61.9625 25.9063 53.5563C25.9063 53.5563 21 46.4687 21.75 31.675V31.6687C31.6562 22.075 43.3188 14.2937 56.2125 8.84375C69.6688 3.15 84.4688 0 100 0C115.531 0 130.331 3.15 143.788 8.84375C157.25 14.5312 169.369 22.7687 179.55 32.95C189.731 43.1313 197.969 55.25 203.656 68.7125C208.181 79.4062 211.1 90.95 212.106 103.031L126.787 83.2063L126.775 83.2688Z" fill="white"/>
<path d="M212.481 113.994C210.681 185.331 108.788 179.194 97.6377 132.494C103.125 138.637 111.113 142.5 120 142.5C136.569 142.5 150 129.069 150 112.5C150 98.2625 140.081 86.3375 126.775 83.2688L126.788 83.2063L212.106 103.031C212.369 106.156 212.5 109.312 212.5 112.5C212.5 113 212.494 113.494 212.494 113.994H212.481Z" fill="url(#paint0_linear_1613_22)"/>
<path d="M94.3749 224.863C83.6062 224.331 73.2374 222.287 63.4749 218.937C63.4562 218.931 63.4374 218.925 63.4187 218.919C62.4562 218.581 61.5062 218.244 60.5562 217.881C53.5812 215.056 33.4624 205.744 21.8749 192.5C14.5499 184.125 14.8374 174.006 14.3749 167.5C13.7499 158.75 20.5874 156.25 25.6249 156.25C29.3749 156.25 31.1937 158.462 33.4062 162.044C35.6249 165.625 43.1249 187.5 58.1249 205C69.1749 217.894 81.6874 223.306 94.3749 224.863Z" fill="url(#paint1_linear_1613_22)"/>
<defs>
<linearGradient id="paint0_linear_1613_22" x1="97.6377" y1="125.418" x2="212.5" y2="125.418" gradientUnits="userSpaceOnUse">
<stop offset="0.0335"/>
<stop offset="0.0858" stop-color="#181818"/>
<stop offset="0.2309" stop-color="#545454"/>
<stop offset="0.3752" stop-color="#888888"/>
<stop offset="0.5153" stop-color="#B3B3B3"/>
<stop offset="0.6503" stop-color="#D4D4D4"/>
<stop offset="0.7789" stop-color="#ECECEC"/>
<stop offset="0.8984" stop-color="#FAFAFA"/>
<stop offset="1" stop-color="white"/>
</linearGradient>
<linearGradient id="paint1_linear_1613_22" x1="14.3349" y1="190.556" x2="94.3749" y2="190.556" gradientUnits="userSpaceOnUse">
<stop stop-color="white"/>
<stop offset="1"/>
</linearGradient>
</defs>
</svg>
