<?xml version="1.0" encoding="UTF-8" standalone="no"?>
<!-- Created with Inkscape (http://www.inkscape.org/) -->

<svg
   width="163.66493mm"
   height="43.059803mm"
   viewBox="0 0 233.80704 61.514004"
   version="1.1"
   id="svg1"
   xml:space="preserve"
   xmlns="http://www.w3.org/2000/svg"
   xmlns:svg="http://www.w3.org/2000/svg"><defs
     id="defs1" /><g
     id="g10"
     style="display:inline"
     transform="translate(-33.034801,-75.156419)"><path
       style="display:inline;fill:#ffffff;fill-opacity:1;stroke-width:1.44283"
       d="m 154.38253,508.54249 c -18.44887,-4.72702 -22.58133,-7.04561 -26.45864,-14.84512 -2.64855,-5.32777 -2.64719,-5.34284 1.05461,-11.65947 4.94137,-8.43182 9.67898,-10.07363 20.70843,-7.17646 4.56647,1.1995 11.84776,3.11254 16.18065,4.2512 9.42784,2.47758 28.7375,2.69656 39.23637,0.44496 17.75776,-3.80836 22.79186,-21.34947 8.25536,-28.76544 -3.04555,-1.55372 -17.24893,-6.0575 -31.56306,-10.0084 -34.75878,-9.5939 -44.11752,-14.44205 -51.19659,-26.52156 -7.48466,-12.77161 -7.66951,-30.51876 -0.46558,-44.70097 6.598,-12.98933 22.46511,-23.99539 39.93044,-27.69735 26.22297,-5.55824 68.56892,0.22889 76.62612,10.47195 4.74268,6.02935 3.94009,14.1307 -1.98712,20.05791 -5.89113,5.89113 -8.71882,6.08793 -26.36196,1.83473 -16.54595,-3.98871 -39.52279,-4.42248 -46.157,-0.87139 -7.07349,3.78623 -10.5879,9.19536 -10.5879,16.29616 0,10.12919 0.69963,10.48391 44.98683,22.80963 22.92717,6.38094 33.56374,11.68998 41.8212,20.87427 7.60145,8.45464 9.86141,15.02391 9.86141,28.66527 0,30.56376 -28.99611,51.04185 -72.01146,50.85708 -12.04532,-0.0517 -18.79179,-0.96552 -31.87211,-4.317 z"
       id="path7"
       transform="scale(0.26458333)" /><path
       style="display:inline;fill:#ffffff;fill-opacity:1;stroke-width:1.44283"
       d="m 306.99053,509.67451 c -11.39843,-4.21822 -20.68883,-11.77471 -26.89171,-21.87279 -5.23276,-8.51875 -5.24021,-8.55465 -5.24021,-25.24947 0,-14.81865 0.40181,-17.53843 3.53568,-23.93273 4.98548,-10.1723 16.94638,-21.63485 27.94715,-26.78274 14.86713,-6.95716 27.31906,-8.91017 52.71417,-8.26786 l 22.15542,0.56038 -0.59488,-8.22401 c -0.70629,-9.76448 -5.27442,-16.74477 -13.69585,-20.92784 -7.23506,-3.59378 -33.78423,-3.60498 -49.30733,-0.0208 -8.40398,1.94042 -11.64721,2.11883 -15.48612,0.85188 -12.914,-4.26201 -14.2327,-21.77105 -2.11177,-28.03903 11.25563,-5.82051 51.95562,-9.79396 67.99572,-6.63826 25.16351,4.95062 42.09401,20.36394 48.44494,44.10367 2.43851,9.11514 2.77161,92.26081 0.40379,100.78828 -1.74409,6.28116 -11.22095,17.30921 -17.84293,20.76347 -2.42182,1.26332 -6.85978,2.75343 -9.86212,3.31137 -6.0776,1.12943 -8.24806,-0.94923 -8.24806,-7.89925 0,-2.03606 -0.62692,-3.70192 -1.39316,-3.70192 -0.76624,0 -5.47346,2.24041 -10.4605,4.97868 -12.51397,6.87115 -23.62689,9.46792 -40.03055,9.35402 -10.28254,-0.0714 -15.85574,-0.8695 -22.03168,-3.15504 z m 55.51545,-31.80841 c 12.41765,-7.27723 18.40044,-18.87399 18.40044,-35.66655 0,-7.57252 -0.51224,-9.96059 -2.28224,-10.6398 -4.66374,-1.78965 -34.67386,-0.86323 -43.22439,1.33435 -10.21224,2.62465 -18.93094,8.49167 -22.6694,15.25476 -2.10181,3.80231 -2.51965,6.62237 -1.86663,12.59804 1.88642,17.26214 9.10361,22.25393 31.13082,21.53172 11.92501,-0.39099 14.64918,-0.97703 20.5114,-4.41252 z"
       id="path8"
       transform="scale(0.26458333)" /><path
       style="display:inline;fill:#ffffff;fill-opacity:1;stroke-width:1.44283"
       d="m 445.11224,508.82507 c -9.2564,-5.65937 -8.65696,2.00416 -8.65696,-110.67499 0,-100.76349 0.0569,-102.8518 2.88565,-105.97959 4.56148,-5.04363 13.37515,-8.95705 17.92307,-7.95816 2.19032,0.48107 6.19566,2.72154 8.90076,4.9788 l 4.91837,4.10413 0.72142,51.01972 c 0.39677,28.06084 0.39677,74.39352 0,102.9615 -0.78925,56.82583 -0.58673,55.53603 -9.65964,61.51826 -5.14903,3.39502 -11.5109,3.40635 -17.03267,0.0303 z"
       id="path10"
       transform="scale(0.26458333)" /><path
       style="display:inline;fill:#ffffff;fill-opacity:1;stroke-width:1.44283"
       d="m 554.76712,514.3362 c -23.51069,-4.71907 -46.27433,-21.8071 -56.68133,-42.54911 -10.26565,-20.46027 -12.87054,-50.08747 -6.27788,-71.4025 5.33489,-17.24848 12.43275,-29.35748 22.74958,-38.81099 17.9718,-16.46789 31.64374,-21.08317 59.51178,-20.08957 17.52993,0.62501 17.54225,0.62796 30.77322,7.36523 7.27995,3.70699 13.46079,6.51545 13.73521,6.24103 0.27442,-0.27441 0.96878,-13.44498 1.54302,-29.26793 1.17715,-32.43566 1.7344,-34.26683 12.02574,-39.51708 6.59018,-3.36206 10.84267,-2.93525 17.42032,1.74846 8.94414,6.36879 8.64438,2.4945 8.11704,104.91136 -0.52709,102.36834 0.0419,95.80785 -9.26848,106.87254 -4.73209,5.62378 -15.84765,11.41858 -24.06302,12.54462 l -6.14541,0.84232 0.5283,-6.64244 c 0.29056,-3.65335 -0.023,-6.64246 -0.69685,-6.64246 -0.67383,0 -6.42034,2.6139 -12.77002,5.80866 -17.20526,8.65662 -35.04477,11.69027 -50.50122,8.58786 z m 40.60071,-36.45201 c 5.74299,-3.01988 17.16264,-14.38489 20.404,-20.30637 2.06948,-3.78064 2.47969,-8.58766 2.47969,-29.05809 0,-28.84361 -0.94988,-32.55468 -10.87246,-42.47726 -9.59697,-9.59697 -16.62849,-12.05574 -32.64793,-11.41629 -10.66307,0.42563 -14.13359,1.21004 -21.20403,4.79253 -20.03144,10.14963 -30.05724,33.36524 -25.56048,59.18752 3.53269,20.28624 13.10676,32.45057 31.3085,39.77901 8.7815,3.53565 28.94844,3.25567 36.09271,-0.50105 z"
       id="path11"
       transform="scale(0.26458333)" /><path
       style="display:inline;fill:#ffffff;fill-opacity:1;stroke-width:1.44283"
       d="m 729.45783,514.11507 c -21.35417,-2.13794 -39.41781,-15.58412 -49.61027,-36.9288 l -5.32577,-11.15303 -0.41081,-54.64352 c -0.4538,-60.36033 -0.68284,-58.68004 8.78546,-64.45323 5.59862,-3.41369 9.84755,-3.55355 16.21158,-0.53362 9.93328,4.71365 9.93715,4.73392 10.99071,57.58879 0.53248,26.71341 1.62354,49.76557 2.48561,52.51651 4.00085,12.76709 13.82979,20.67889 28.78683,23.17193 17.55105,2.92541 30.61118,-1.36836 41.97227,-13.7992 10.70514,-11.71313 11.26715,-14.64484 12.20936,-63.68979 0.85012,-44.25108 1.22783,-46.80581 7.79929,-52.75291 6.62807,-5.99832 18.1119,-5.48567 24.69732,1.10251 l 3.74056,3.74213 v 66.6964 c 0,73.8514 0.42157,70.33996 -9.63495,80.25434 -5.79597,5.71403 -11.20911,8.66387 -20.30372,11.06429 l -6.85343,1.8089 v -9.24778 c 0,-10.84855 -1.18047,-11.43984 -9.54068,-4.77879 -14.15069,11.27464 -33.96586,16.24084 -55.99936,14.03487 z"
       id="path12"
       transform="scale(0.26458333)" /><path
       style="display:inline;fill:#ffffff;fill-opacity:1;stroke-width:1.44283"
       d="m 897.11061,514.99196 c -25.27743,-6.07218 -42.43716,-24.25189 -48.09768,-50.95664 -2.95635,-13.94723 -2.953,-102.03708 0.004,-109.11454 4.0801,-9.76507 16.99766,-13.68069 26.34003,-7.98429 9.83358,5.99592 9.77865,5.68458 10.17693,57.68547 0.23356,30.49454 0.94039,48.70967 2.01814,52.00743 5.62486,17.21124 20.26519,25.85275 40.98202,24.1898 15.93324,-1.27897 29.83001,-10.79426 36.9878,-25.32599 3.21838,-6.53393 3.36213,-8.38627 4.05799,-52.28998 0.6386,-40.29143 1.01355,-45.96155 3.26645,-49.39675 8.03783,-12.25598 24.13972,-12.12667 32.41471,0.26031 l 3.2751,4.90256 v 60.84492 c 0,68.37708 -0.3588,71.3947 -9.72201,81.7587 -6.27574,6.94648 -13.93854,11.09071 -22.73692,12.29667 l -6.49733,0.89056 v -9.57451 c 0,-5.26595 -0.54865,-9.57448 -1.21921,-9.57448 -0.67057,0 -2.413,1.31912 -3.87208,2.93139 -3.71318,4.10301 -16.18726,11.02164 -26.16667,14.5131 -10.64887,3.72567 -29.98132,4.63397 -41.21142,1.93627 z"
       id="path13"
       transform="scale(0.26458333)" /></g></svg>
