
            <svg xmlns="http://www.w3.org/2000/svg">
                <filter id="grayscale">
                    <feColorMatrix type="saturate" values="0"/>
                </filter>
                <g filter="url(#grayscale)">
                    <svg xmlns="http://www.w3.org/2000/svg" viewBox="20 158.8902378720599 534.9993666070562 257.2195242558802"> <g transform="rotate(0 148.6097621279401 287.5)"><svg xmlns="http://www.w3.org/2000/svg" xmlns:xlink="http://www.w3.org/1999/xlink" version="1.1" id="Layer_1" x="90" y="228.8902378720599" viewBox="-0.0032777786254882812 -0.00327616510912776 162.8032989501953 162.8032989501953" xml:space="preserve" height="117.21952425588017" width="117.21952425588017" preserveAspectRatio="xMinYMin" enable-background="new 0 0 162.7 162.7" style="overflow: visible;"><path class="st29" d="M97,43.6c-1.9-3-3.5-6-4.9-9.2c-1.7,0.3-3.4,0.5-5.1,0.7c1.4,3.3,2.9,6.4,4.8,9.5C93.5,44.3,95.3,44,97,43.6z   " style="fill: #005731;"></path><path class="st33" d="M65.7,119.1c1.9,3,3.5,6,4.9,9.2c1.7-0.3,3.4-0.5,5.1-0.7c-1.4-3.3-2.9-6.4-4.8-9.5   C69.2,118.4,67.5,118.7,65.7,119.1z" style="fill: #990476;"></path><path class="st31" d="M119.1,97c3-1.9,6-3.5,9.2-4.9c-0.3-1.7-0.5-3.4-0.7-5.1c-3.3,1.4-6.4,2.9-9.5,4.8   C118.4,93.5,118.7,95.3,119.1,97z" style="fill: #03337F;"></path><path class="st34" d="M43.6,65.7c-3,1.9-6,3.5-9.2,4.9c0.3,1.7,0.5,3.4,0.7,5.2c3.3-1.4,6.4-3,9.5-4.8C44.3,69.2,44,67.5,43.6,65.7   z" style="fill: #895800;"></path><path class="st14" d="M119.1,65.7c0.8-3.4,1.8-6.7,3.1-10c-1.4-1-2.8-2-4.1-3.1c-1.4,3.3-2.5,6.6-3.4,10.1   C116.1,63.8,117.6,64.8,119.1,65.7z" style="fill: #282B89;"></path><path class="st13" d="M110.1,44.7c-1.1-1.3-2.2-2.7-3.1-4.1c-1.9-2.8-3.6-5.7-5.1-8.8c-0.7-1.5-1.3-3.1-1.9-4.6    c-2.6-7-3.8-14.4-3.7-22.1c0.1-2.8-2.1-5-4.9-5.1c-2.8-0.1-5,2.1-5.1,4.9c-0.2,8.6,1.2,16.9,4,24.7c0.6,1.6,1.2,3.2,1.9,4.7    c1.4,3.2,3,6.3,4.9,9.2c1,1.5,2,3,3,4.4c2.1,2.8,4.3,5.4,6.8,7.9c2.5,2.5,5.1,4.7,7.9,6.8c0.9-3.5,2-6.8,3.4-10.1    c-1.4-1.2-2.8-2.4-4.1-3.8C112.6,47.5,111.3,46.1,110.1,44.7z" style="fill: #8688C0;"></path><path class="st13" d="M157.7,66.4C157.7,66.4,157.6,66.4,157.7,66.4c-0.5,0-0.9,0-1.3,0c-7.2,0-14.3-1.3-20.9-3.7    c-1.6-0.6-3.1-1.2-4.6-1.9c-1.1,3.2-2,6.4-2.6,9.8c1.6,0.7,3.1,1.3,4.7,1.9c7.4,2.6,15.3,4,23.3,4c0.5,0,0.9,0,1.4,0    c2.8-0.1,5-2.3,4.9-5.1C162.7,68.6,160.4,66.4,157.7,66.4z" style="fill: #8688C0;"></path><path class="st32" d="M127.4,81.4c0-1.9,0.1-3.7,0.3-5.6c0.2-1.7,0.4-3.5,0.7-5.2c0.6-3.3,1.5-6.6,2.6-9.8    c0.6-1.6,1.2-3.1,1.9-4.6c3.1-6.7,7.5-12.9,13-18.2c2-1.9,2.1-5.1,0.1-7.1c-1.9-2-5.1-2.1-7.1-0.1c-6.2,5.9-11.1,12.8-14.7,20.3    c-0.7,1.5-1.4,3.1-2,4.7c-1.3,3.2-2.3,6.6-3.1,10c-0.4,1.7-0.7,3.5-1,5.3c-0.5,3.4-0.8,6.9-0.8,10.4c0,3.5,0.3,7,0.8,10.4    c3.1-1.8,6.2-3.4,9.5-4.8C127.5,85.1,127.4,83.2,127.4,81.4z" style="fill: #5C2DB5;"></path><path class="st32" d="M132.8,106.5c-0.7-1.5-1.3-3.1-1.9-4.6c-3,1.4-6,3.1-8.8,5.1c0.6,1.6,1.3,3.2,2,4.7    c3.6,7.5,8.5,14.3,14.7,20.3c1,0.9,2.2,1.4,3.5,1.4c1.3,0,2.6-0.5,3.6-1.5c1.9-2,1.9-5.2-0.1-7.1    C140.3,119.4,135.9,113.3,132.8,106.5z" style="fill: #5C2DB5;"></path><path class="st16" d="M43.6,97c-0.8,3.4-1.8,6.7-3.1,10c1.4,1,2.8,2,4.1,3.1c1.4-3.3,2.5-6.6,3.4-10.1C46.6,98.9,45.1,97.9,43.6,97   z" style="fill: #A4A804;"></path><path class="st15" d="M4.9,86.3c-2.8,0.1-5,2.3-4.9,5.1c0.1,2.7,2.3,4.9,5,4.9c0,0,0.1,0,0.1,0c7.6-0.2,15.1,1.1,22.1,3.7    c1.6,0.6,3.1,1.2,4.6,1.9c1.1-3.2,2-6.4,2.6-9.8c-1.6-0.7-3.1-1.3-4.7-1.9C21.8,87.5,13.5,86.1,4.9,86.3z" style="fill: #DBE000;"></path><path class="st15" d="M72.5,133.1c-0.6-1.6-1.2-3.2-1.9-4.7c-1.4-3.2-3-6.3-4.9-9.2c-1-1.5-2-3-3-4.4c-2.1-2.8-4.3-5.4-6.8-7.9    c-2.5-2.5-5.1-4.7-7.9-6.8c-0.9,3.4-2,6.8-3.4,10.1c1.4,1.2,2.8,2.4,4.1,3.8c1.3,1.3,2.6,2.7,3.8,4.1c1.1,1.3,2.2,2.7,3.1,4.1    c1.9,2.8,3.6,5.7,5.1,8.8c0.7,1.5,1.3,3.1,1.9,4.6c2.6,7,3.8,14.4,3.7,22.1c-0.1,2.8,2.1,5,4.9,5.1c0,0,0.1,0,0.1,0    c2.7,0,4.9-2.2,5-4.9C76.6,149.2,75.2,140.9,72.5,133.1z" style="fill: #DBE000;"></path><path class="st19" d="M44.6,71c-3.1,1.8-6.2,3.4-9.5,4.8c0.2,1.8,0.3,3.7,0.3,5.6c0,1.9-0.1,3.8-0.3,5.6c-0.2,1.7-0.4,3.4-0.7,5.1    c-0.6,3.3-1.5,6.6-2.6,9.8c-0.6,1.6-1.2,3.1-1.9,4.6c-3.1,6.7-7.5,12.9-13,18.2c-2,1.9-2.1,5.1-0.1,7.1c1,1,2.3,1.5,3.6,1.5    c1.2,0,2.5-0.5,3.5-1.4c6.2-5.9,11.1-12.8,14.7-20.3c0.7-1.5,1.4-3.1,2-4.7c1.3-3.2,2.3-6.6,3.1-10c0.4-1.7,0.7-3.5,1-5.3    c0.5-3.4,0.8-6.9,0.8-10.4C45.4,77.9,45.1,74.4,44.6,71z" style="fill: #FFAA00;"></path><path class="st19" d="M29.9,56.2c0.7,1.5,1.4,3.1,1.9,4.6c3-1.4,6-3.1,8.8-5.1c-0.6-1.6-1.3-3.2-2-4.7    c-3.6-7.5-8.5-14.3-14.7-20.3c-2-1.9-5.2-1.9-7.1,0.1c-1.9,2-1.9,5.2,0.1,7.1C22.4,43.3,26.8,49.5,29.9,56.2z" style="fill: #FFAA00;"></path><path class="st18" d="M97,119.1c3.4,0.8,6.7,1.8,10,3.1c1-1.4,2-2.8,3.1-4.1c-3.3-1.4-6.6-2.5-10.1-3.4   C98.9,116.1,97.9,117.6,97,119.1z" style="fill: #0098FF;"></path><path class="st35" d="M131.9,138.9c-5.9-6.2-12.8-11.1-20.3-14.7c-1.5-0.7-3.1-1.4-4.7-2c-3.2-1.3-6.6-2.3-10-3.1    c-1.7-0.4-3.5-0.7-5.3-1c-3.4-0.5-6.9-0.8-10.4-0.8c-3.5,0-7,0.3-10.4,0.8c1.8,3.1,3.4,6.2,4.8,9.5c1.8-0.2,3.7-0.3,5.6-0.3    s3.7,0.1,5.6,0.3c1.7,0.2,3.4,0.4,5.1,0.7c3.3,0.6,6.6,1.5,9.8,2.6c1.6,0.6,3.1,1.2,4.6,1.9c6.7,3.1,12.9,7.5,18.2,13    c1,1,2.3,1.5,3.6,1.5c1.2,0,2.5-0.5,3.5-1.4C133.8,144,133.9,140.9,131.9,138.9z" style="fill: #F965D0;"></path><path class="st35" d="M51.1,124.2c-7.5,3.6-14.3,8.5-20.3,14.7c-1.9,2-1.9,5.2,0.1,7.1c2,1.9,5.2,1.9,7.1-0.1    c5.3-5.5,11.5-9.9,18.2-13c1.5-0.7,3.1-1.3,4.6-1.9c-1.4-3-3.1-6-5.1-8.8C54.2,122.8,52.6,123.5,51.1,124.2z" style="fill: #F965D0;"></path><path class="st17" d="M157.8,86.3c-8.6-0.2-16.9,1.2-24.7,4c-1.6,0.6-3.2,1.2-4.7,1.9c-3.2,1.4-6.3,3-9.2,4.9c-1.5,1-3,2-4.4,3    c-2.8,2.1-5.4,4.3-7.9,6.8c-2.5,2.5-4.7,5.1-6.8,7.9c3.4,0.9,6.8,2,10.1,3.4c1.2-1.4,2.4-2.8,3.8-4.1c1.3-1.3,2.7-2.6,4.1-3.8    c1.3-1.1,2.7-2.2,4.1-3.1c2.8-1.9,5.7-3.6,8.8-5.1c1.5-0.7,3.1-1.3,4.6-1.9c6.9-2.6,14.4-3.8,22.1-3.7c0,0,0.1,0,0.1,0    c2.7,0,4.9-2.2,5-4.9C162.8,88.6,160.6,86.3,157.8,86.3z" style="fill: #73CDFF;"></path><path class="st17" d="M90.2,133.1c-2.8,7.8-4.1,16.2-4,24.7c0.1,2.7,2.3,4.9,5,4.9c0,0,0.1,0,0.1,0c2.8-0.1,5-2.3,4.9-5.1    c-0.1-7.7,1.1-15.1,3.7-22.1c0.6-1.6,1.2-3.1,1.9-4.6c-3.2-1.1-6.4-2-9.8-2.6C91.4,129.9,90.8,131.5,90.2,133.1z" style="fill: #73CDFF;"></path><path class="st36" d="M65.7,43.6c-3.4-0.8-6.7-1.8-10-3.1c-1,1.4-2,2.8-3.1,4.1c3.3,1.4,6.6,2.5,10.1,3.4   C63.8,46.6,64.8,45.1,65.7,43.6z" style="fill: #A54300;"></path><path class="st28" d="M131.8,16.8c-2-1.9-5.2-1.9-7.1,0.1c-5.3,5.5-11.5,9.9-18.2,13c-1.5,0.7-3.1,1.3-4.6,1.9    c1.4,3,3.1,6,5.1,8.8c1.6-0.6,3.2-1.3,4.7-2c7.5-3.6,14.3-8.5,20.3-14.7C133.9,21.8,133.8,18.7,131.8,16.8z" style="fill: #00BE82;"></path><path class="st28" d="M81.4,35.4c-1.9,0-3.7-0.1-5.6-0.3c-1.7-0.2-3.4-0.4-5.1-0.7c-3.3-0.6-6.6-1.5-9.8-2.6    c-1.6-0.6-3.1-1.2-4.6-1.9c-6.7-3.1-12.9-7.5-18.2-13c-1.9-2-5.1-2.1-7.1-0.1c-2,1.9-2.1,5.1-0.1,7.1c5.9,6.2,12.8,11.1,20.3,14.7    c1.5,0.7,3.1,1.4,4.7,2c3.2,1.3,6.6,2.3,10,3.1c1.7,0.4,3.5,0.7,5.3,1c3.4,0.5,6.9,0.8,10.4,0.8c3.5,0,7-0.3,10.4-0.8    c-1.8-3.1-3.4-6.2-4.8-9.5C85.1,35.3,83.2,35.4,81.4,35.4z" style="fill: #00BE82;"></path><path class="st37" d="M71.4,0c-2.8,0.1-5,2.3-4.9,5.1c0.1,7.7-1.1,15.1-3.7,22.1c-0.6,1.6-1.2,3.1-1.9,4.6c3.2,1.1,6.4,2,9.8,2.6    c0.7-1.6,1.3-3.1,1.9-4.7c2.8-7.8,4.1-16.2,4-24.7C76.4,2.1,74.1,0,71.4,0z" style="fill: #FF6900;"></path><path class="st37" d="M48.8,48.8c-1.3,1.3-2.7,2.6-4.1,3.8c-1.3,1.1-2.7,2.2-4.1,3.1c-2.8,1.9-5.7,3.6-8.8,5.1    c-1.5,0.7-3.1,1.3-4.6,1.9c-7,2.6-14.4,3.9-22.1,3.7c0,0-0.1,0-0.1,0c-2.7,0-4.9,2.2-5,4.9c-0.1,2.8,2.1,5,4.9,5.1    c0.5,0,0.9,0,1.4,0c8.1,0,15.9-1.4,23.3-4c1.6-0.6,3.2-1.2,4.7-1.9c3.2-1.4,6.3-3,9.2-4.9c1.5-1,3-1.9,4.4-3    c2.8-2.1,5.4-4.3,7.9-6.8c2.5-2.5,4.7-5.1,6.8-7.9c-3.4-0.9-6.8-2-10.1-3.4C51.4,46.1,50.2,47.5,48.8,48.8z" style="fill: #FF6900;"></path></svg></g> <g transform="rotate(0 357.83139785705623 287.5020704460906)"><svg y="269.91707136161796" viewBox="1.5140740871429443 9.880000114440918 254.3359375 35.16999816894531" x="230.66342910705623" height="35.16999816894531" width="254.3359375" style="overflow: visible;"><g fill="#ffffff" fill-opacity="1" style=""><path d="M22.89 18.42L22.89 18.42Q21.88 17.31 20.38 16.43Q18.88 15.55 16.11 15.55L16.11 15.55Q13.20 15.55 11.77 16.59Q10.34 17.63 10.34 19.25L10.34 19.25Q10.34 19.80 10.62 20.45Q10.89 21.09 11.72 21.69Q12.55 22.29 14.08 22.76L14.08 22.76L21.37 24.83Q25.62 25.99 27.56 28.55Q29.49 31.11 29.49 34.48L29.49 34.48Q29.49 37.71 27.83 40.09Q26.17 42.46 23.08 43.76Q19.99 45.05 15.74 45.05L15.74 45.05Q12.60 45.05 9.85 44.33Q7.11 43.62 5.01 42.26Q2.91 40.90 1.71 39.09L1.71 39.09Q1.48 38.63 1.52 38.33Q1.57 38.03 1.98 37.71L1.98 37.71L5.54 35.26Q6.09 34.94 6.44 34.99Q6.79 35.03 7.06 35.36L7.06 35.36Q8.17 36.74 9.25 37.66Q10.34 38.59 11.77 39.00Q13.20 39.42 15.19 39.42L15.19 39.42Q18.19 39.42 19.99 38.47Q21.79 37.53 21.79 35.54L21.79 35.54Q21.79 34.76 21.42 34.09Q21.05 33.42 20.24 32.89Q19.43 32.36 17.96 31.89L17.96 31.89L10.99 29.91Q8.26 29.13 6.42 27.69Q4.57 26.26 3.62 24.32Q2.68 22.39 2.68 20.26L2.68 20.26Q2.68 17.31 4.32 14.95Q5.95 12.60 8.93 11.24Q11.91 9.88 15.88 9.88L15.88 9.88Q18.51 9.88 20.79 10.48Q23.08 11.08 24.92 12.14Q26.77 13.20 27.92 14.72L27.92 14.72Q28.11 14.95 28.20 15.25Q28.29 15.55 27.92 15.88L27.92 15.88L24.05 18.74Q23.77 18.92 23.54 18.86Q23.31 18.79 22.89 18.42L22.89 18.42ZM34.80 44.59L34.80 44.59Q33.83 44.59 33.83 43.66L33.83 43.66L33.83 11.22Q33.83 10.34 34.57 10.34L34.57 10.34L40.11 10.34Q40.80 10.34 40.80 11.12L40.80 11.12L40.80 22.94Q40.80 23.22 40.94 23.29Q41.08 23.36 41.36 23.12L41.36 23.12Q42.79 21.83 44.06 21.09Q45.33 20.36 46.60 20.01Q47.86 19.66 49.16 19.66L49.16 19.66Q52.67 19.66 54.56 21.60Q56.45 23.54 56.45 27.05L56.45 27.05L56.45 43.48Q56.45 44.59 55.34 44.59L55.34 44.59L50.22 44.59Q49.76 44.59 49.55 44.38Q49.34 44.17 49.34 43.66L49.34 43.66L49.34 28.06Q49.34 26.49 48.51 25.64Q47.68 24.79 46.02 24.79L46.02 24.79Q45.05 24.79 44.22 25.11Q43.39 25.43 42.60 26.06Q41.82 26.68 40.94 27.65L40.94 27.65L40.94 43.53Q40.94 44.59 39.74 44.59L39.74 44.59L34.80 44.59ZM68.45 20.91L68.45 43.48Q68.45 44.08 68.17 44.33Q67.90 44.59 67.20 44.59L67.20 44.59L62.36 44.59Q61.76 44.59 61.55 44.36Q61.34 44.13 61.34 43.62L61.34 43.62L61.34 21.00Q61.34 20.12 62.08 20.12L62.08 20.12L67.76 20.12Q68.45 20.12 68.45 20.91L68.45 20.91ZM68.54 11.22L68.54 16.02Q68.54 17.17 67.30 17.17L67.30 17.17L62.31 17.17Q61.71 17.17 61.50 16.89Q61.30 16.62 61.30 16.11L61.30 16.11L61.30 11.26Q61.30 10.34 62.08 10.34L62.08 10.34L67.80 10.34Q68.54 10.34 68.54 11.22L68.54 11.22ZM74.54 44.59L74.54 44.59Q73.57 44.59 73.57 43.66L73.57 43.66L73.57 21.00Q73.57 20.12 74.31 20.12L74.31 20.12L79.90 20.12Q80.59 20.12 80.59 20.91L80.59 20.91L80.59 23.17Q80.59 23.45 80.73 23.54Q80.87 23.63 81.14 23.36L81.14 23.36Q82.34 22.25 83.54 21.42Q84.74 20.59 86.08 20.12Q87.42 19.66 88.94 19.66L88.94 19.66Q92.31 19.66 94.28 21.65Q96.24 23.63 96.24 26.96L96.24 26.96L96.24 43.48Q96.24 44.59 95.13 44.59L95.13 44.59L90.01 44.59Q89.54 44.59 89.34 44.38Q89.13 44.17 89.13 43.66L89.13 43.66L89.13 28.06Q89.13 26.49 88.28 25.64Q87.42 24.79 85.76 24.79L85.76 24.79Q84.79 24.79 83.96 25.11Q83.13 25.43 82.34 26.06Q81.56 26.68 80.68 27.65L80.68 27.65L80.68 43.53Q80.68 44.59 79.48 44.59L79.48 44.59L74.54 44.59ZM125.45 43.53L125.45 43.53Q125.69 43.85 125.50 44.22Q125.32 44.59 124.76 44.59L124.76 44.59L118.72 44.59Q118.25 44.59 117.98 44.33Q117.70 44.08 117.47 43.62L117.47 43.62L112.72 34.11Q112.58 33.74 112.39 33.69Q112.21 33.65 111.93 33.93L111.93 33.93L108.65 37.16Q108.47 37.34 108.35 37.59Q108.24 37.85 108.24 38.31L108.24 38.31L108.24 43.48Q108.24 44.08 107.96 44.33Q107.68 44.59 107.04 44.59L107.04 44.59L102.15 44.59Q101.55 44.59 101.34 44.36Q101.13 44.13 101.13 43.62L101.13 43.62L101.13 11.22Q101.13 10.34 101.87 10.34L101.87 10.34L107.55 10.34Q108.24 10.34 108.24 11.17L108.24 11.17L108.24 30.09Q108.24 30.37 108.38 30.46Q108.52 30.56 108.79 30.23L108.79 30.23L117.47 20.82Q118.16 20.12 118.72 20.12L118.72 20.12L123.65 20.12Q124.30 20.12 124.44 20.47Q124.58 20.82 124.12 21.28L124.12 21.28L117.65 27.83Q117.38 28.11 117.35 28.36Q117.33 28.62 117.56 29.13L117.56 29.13L125.45 43.53ZM141.33 42.23L141.33 42.23Q139.90 43.53 138.12 44.29Q136.35 45.05 134.04 45.05L134.04 45.05Q130.53 45.05 128.52 43.16Q126.52 41.26 126.52 38.31L126.52 38.31Q126.52 35.73 128.13 33.79Q129.75 31.85 132.75 30.76Q135.75 29.68 139.90 29.59L139.90 29.59L141.52 29.45Q141.79 29.45 142.03 29.31Q142.26 29.17 142.26 28.80L142.26 28.80L142.26 27.83Q142.26 26.08 141.24 25.09Q140.22 24.09 138.33 24.09L138.33 24.09Q136.95 24.09 135.68 24.72Q134.41 25.34 133.53 26.86L133.53 26.86Q133.39 27.19 133.21 27.28Q133.02 27.37 132.52 27.28L132.52 27.28L127.90 26.22Q127.62 26.12 127.51 25.92Q127.39 25.71 127.67 25.02L127.67 25.02Q128.82 22.29 131.66 20.98Q134.50 19.66 138.66 19.66L138.66 19.66Q142.49 19.66 144.75 20.63Q147.01 21.60 148.03 23.33Q149.04 25.06 149.04 27.37L149.04 27.37L149.04 43.57Q149.04 44.13 148.86 44.36Q148.67 44.59 148.16 44.59L148.16 44.59L143.41 44.59Q142.90 44.59 142.69 44.22Q142.49 43.85 142.44 43.30L142.44 43.30L142.35 42.28Q142.26 41.45 141.33 42.23L141.33 42.23ZM142.26 33.69L142.26 33.69Q142.26 32.91 141.56 32.91L141.56 32.91L140.27 33.00Q139.07 33.05 137.87 33.35Q136.67 33.65 135.70 34.18Q134.73 34.71 134.11 35.52Q133.49 36.33 133.49 37.39L133.49 37.39Q133.49 38.77 134.46 39.58Q135.42 40.39 137.13 40.39L137.13 40.39Q138.29 40.39 139.19 40.02Q140.09 39.65 140.73 39.14L140.73 39.14Q141.43 38.54 141.84 37.94Q142.26 37.34 142.26 36.69L142.26 36.69L142.26 33.69ZM155.13 44.59L155.13 44.59Q154.16 44.59 154.16 43.66L154.16 43.66L154.16 21.00Q154.16 20.12 154.90 20.12L154.90 20.12L160.49 20.12Q161.18 20.12 161.18 20.91L161.18 20.91L161.18 23.17Q161.18 23.45 161.32 23.54Q161.46 23.63 161.73 23.36L161.73 23.36Q162.93 22.25 164.13 21.42Q165.33 20.59 166.67 20.12Q168.01 19.66 169.53 19.66L169.53 19.66Q172.90 19.66 174.87 21.65Q176.83 23.63 176.83 26.96L176.83 26.96L176.83 43.48Q176.83 44.59 175.72 44.59L175.72 44.59L170.60 44.59Q170.13 44.59 169.93 44.38Q169.72 44.17 169.72 43.66L169.72 43.66L169.72 28.06Q169.72 26.49 168.87 25.64Q168.01 24.79 166.35 24.79L166.35 24.79Q165.38 24.79 164.55 25.11Q163.72 25.43 162.93 26.06Q162.15 26.68 161.27 27.65L161.27 27.65L161.27 43.53Q161.27 44.59 160.07 44.59L160.07 44.59L155.13 44.59ZM196.77 26.49L196.77 26.49Q195.98 25.48 194.64 24.74Q193.31 24.00 191.37 24.00L191.37 24.00Q189.66 24.00 188.48 24.67Q187.31 25.34 187.31 26.49L187.31 26.49Q187.31 27.09 187.77 27.62Q188.23 28.16 189.89 28.57L189.89 28.57L195.20 29.86Q199.03 30.74 200.64 32.73Q202.26 34.71 202.26 37.16L202.26 37.16Q202.26 39.65 200.85 41.40Q199.44 43.16 196.95 44.10Q194.46 45.05 191.23 45.05L191.23 45.05Q187.12 45.05 184.26 43.60Q181.40 42.14 180.24 39.97L180.24 39.97Q180.06 39.65 180.06 39.35Q180.06 39.05 180.34 38.91L180.34 38.91L183.47 37.29Q183.94 37.06 184.19 37.09Q184.44 37.11 184.63 37.34L184.63 37.34Q185.23 38.17 186.06 38.91Q186.89 39.65 188.14 40.09Q189.38 40.53 191.27 40.48L191.27 40.48Q192.57 40.48 193.61 40.18Q194.64 39.88 195.24 39.30Q195.84 38.73 195.84 37.94L195.84 37.94Q195.84 37.16 195.20 36.58Q194.55 36.00 192.80 35.59L192.80 35.59L188.04 34.57Q184.58 33.79 182.80 32.10Q181.03 30.42 181.03 27.69L181.03 27.69Q181.03 25.34 182.25 23.54Q183.47 21.74 185.83 20.70Q188.18 19.66 191.46 19.66L191.46 19.66Q194.97 19.66 197.53 20.96Q200.09 22.25 201.20 24.05L201.20 24.05Q201.38 24.32 201.48 24.62Q201.57 24.92 201.15 25.16L201.15 25.16L197.83 26.77Q197.51 26.91 197.25 26.84Q197.00 26.77 196.77 26.49L196.77 26.49ZM212.37 34.43L212.37 34.43Q212.37 36.14 213.18 37.46Q213.98 38.77 215.35 39.49Q216.71 40.20 218.41 40.20L218.41 40.20Q220.08 40.20 221.48 39.49Q222.89 38.77 224.32 37.11L224.32 37.11Q224.51 36.93 224.65 36.90Q224.78 36.88 225.15 37.06L225.15 37.06L228.48 38.45Q229.12 38.73 228.62 39.37L228.62 39.37Q227.14 41.50 225.52 42.74Q223.91 43.99 221.95 44.52Q219.98 45.05 217.54 45.05L217.54 45.05Q213.94 45.05 211.12 43.48Q208.31 41.91 206.67 39.12Q205.03 36.33 205.03 32.73L205.03 32.73Q205.03 28.76 206.71 25.82Q208.40 22.89 211.21 21.28Q214.03 19.66 217.40 19.66L217.40 19.66Q220.95 19.66 223.63 21.21Q226.31 22.76 227.85 25.62Q229.40 28.48 229.40 32.59L229.40 32.59Q229.40 33.09 229.31 33.37Q229.22 33.65 228.62 33.69L228.62 33.69L212.92 33.69Q212.65 33.69 212.51 33.88Q212.37 34.06 212.37 34.43L212.37 34.43ZM212.46 29.77L221.65 29.82Q222.15 29.82 222.29 29.70Q222.43 29.59 222.43 29.17L222.43 29.17Q222.43 28.02 221.90 26.82Q221.37 25.62 220.33 24.81Q219.29 24.00 217.68 24.00L217.68 24.00Q216.15 24.00 214.95 24.74Q213.75 25.48 213.11 26.79Q212.46 28.11 212.46 29.77L212.46 29.77ZM234.15 44.59L234.15 44.59Q233.19 44.59 233.19 43.66L233.19 43.66L233.19 21.00Q233.19 20.12 233.92 20.12L233.92 20.12L239.51 20.12Q240.20 20.12 240.20 20.91L240.20 20.91L240.20 23.17Q240.20 23.45 240.34 23.54Q240.48 23.63 240.75 23.36L240.75 23.36Q241.95 22.25 243.16 21.42Q244.36 20.59 245.69 20.12Q247.03 19.66 248.56 19.66L248.56 19.66Q251.92 19.66 253.89 21.65Q255.85 23.63 255.85 26.96L255.85 26.96L255.85 43.48Q255.85 44.59 254.74 44.59L254.74 44.59L249.62 44.59Q249.16 44.59 248.95 44.38Q248.74 44.17 248.74 43.66L248.74 43.66L248.74 28.06Q248.74 26.49 247.89 25.64Q247.03 24.79 245.37 24.79L245.37 24.79Q244.40 24.79 243.57 25.11Q242.74 25.43 241.95 26.06Q241.17 26.68 240.29 27.65L240.29 27.65L240.29 43.53Q240.29 44.59 239.09 44.59L239.09 44.59L234.15 44.59Z" transform="translate(0, 0)"></path></g></svg></g></svg>
                </g>
            </svg>
        